M48
; DRILL file {KiCad (5.1.2)-1} date 2019-06-19 9:28:06 PM
; FORMAT={-:-/ absolute / inch / decimal}
; #@! TF.CreationDate,2019-06-19T21:28:06-04:00
; #@! TF.GenerationSoftware,Kicad,Pcbnew,(5.1.2)-1
; #@! TF.FileFunction,Plated,1,4,PTH
FMAT,2
INCH
T1C0.0079
T2C0.0080
T3C0.0157
T4C0.0180
T5C0.0260
T6C0.0280
T7C0.0295
T8C0.0394
T9C0.0400
T10C0.0429
T11C0.0512
T12C0.1339
%
G90
G05
T1
X1.371Y-3.846
X1.3751Y-3.9808
X1.3762Y-4.0468
X1.3783Y-4.1749
X1.3791Y-3.7802
X1.3792Y-3.9111
X1.3826Y-4.1165
X1.3832Y-3.6467
X1.3836Y-3.7144
X1.3867Y-4.2413
X1.393Y-3.5696
X1.393Y-4.309
X1.3977Y-3.9719
X1.398Y-3.5055
X1.4002Y-3.8454
X1.4011Y-4.0416
X1.4031Y-3.9066
X1.4035Y-4.3788
X1.4059Y-3.7757
X1.409Y-3.4363
X1.4104Y-3.7179
X1.415Y-4.4422
X1.421Y-3.371
X1.4237Y-4.0651
X1.4275Y-4.5073
X1.4298Y-4.3647
X1.4333Y-3.3078
X1.4338Y-4.4271
X1.4394Y-3.5082
X1.4395Y-3.4087
X1.4416Y-4.235
X1.4418Y-4.3399
X1.4424Y-4.5759
X1.444Y-3.3639
X1.4458Y-4.4706
X1.4489Y-3.239
X1.4557Y-4.3013
X1.4575Y-4.2099
X1.461Y-4.6373
X1.4627Y-4.2758
X1.463Y-3.3042
X1.4676Y-3.1736
X1.4798Y-4.7114
X1.4819Y-4.5633
X1.4832Y-3.2855
X1.4839Y-3.1087
X1.4882Y-3.4523
X1.4956Y-4.1449
X1.4963Y-4.0205
X1.5047Y-4.7743
X1.5071Y-4.4935
X1.5091Y-3.0558
X1.5102Y-3.2546
X1.521Y-3.1877
X1.5218Y-4.11
X1.5242Y-4.8374
X1.5259Y-3.2333
X1.5285Y-2.9886
X1.5309Y-4.7679
X1.5405Y-4.9016
X1.545Y-3.1701
X1.5476Y-4.8235
X1.5514Y-2.9267
X1.5536Y-2.9928
X1.5661Y-3.0229
X1.5675Y-4.8905
X1.5717Y-4.9594
X1.5751Y-3.551
X1.5758Y-2.9266
X1.5805Y-2.8632
X1.5924Y-4.9465
X1.5931Y-5.0258
X1.5966Y-2.7996
X1.6042Y-3.1233
X1.6045Y-2.8677
X1.611Y-5.0093
X1.618Y-5.0869
X1.6217Y-3.546
X1.6239Y-4.5539
X1.624Y-2.8096
X1.628Y-2.7413
X1.6393Y-5.0731
X1.6412Y-3.1003
X1.6462Y-4.0768
X1.6491Y-5.1496
X1.6499Y-3.0077
X1.6546Y-2.7468
X1.6562Y-2.6816
X1.6655Y-4.5322
X1.6662Y-5.2057
X1.6689Y-5.0868
X1.6799Y-2.6946
X1.6804Y-2.6183
X1.6981Y-5.2645
X1.7026Y-3.8466
X1.7061Y-4.0869
X1.7154Y-2.5533
X1.7165Y-3.982
X1.7204Y-5.019
X1.7261Y-3.8431
X1.7285Y-5.3254
X1.7346Y-3.9636
X1.743Y-2.4953
X1.7451Y-3.8581
X1.747Y-5.2388
X1.7528Y-5.2096
X1.7552Y-3.9778
X1.7563Y-4.3817
X1.761Y-3.4387
X1.7635Y-5.3866
X1.7648Y-5.1352
X1.7719Y-3.958
X1.7748Y-4.3646
X1.7765Y-5.0932
X1.7781Y-2.4345
X1.7807Y-2.5126
X1.7814Y-5.2692
X1.7829Y-5.3639
X1.7842Y-5.2954
X1.7845Y-3.4295
X1.7852Y-5.3365
X1.7946Y-3.9742
X1.7971Y-5.4415
X1.798Y-4.3833
X1.7992Y-3.4553
X1.8092Y-5.4207
X1.8127Y-3.9551
X1.8127Y-2.378
X1.8145Y-4.3656
X1.8164Y-2.4197
X1.8211Y-3.4448
X1.8213Y-3.1458
X1.8236Y-3.8381
X1.8247Y-3.5918
X1.8323Y-5.4977
X1.8334Y-3.969
X1.8349Y-4.3782
X1.8355Y-3.464
X1.8362Y-5.4568
X1.8367Y-2.3795
X1.8463Y-2.4779
X1.8469Y-2.3234
X1.8475Y-3.8329
X1.8476Y-3.5833
X1.8499Y-4.7822
X1.8519Y-4.3577
X1.8521Y-3.9538
X1.8588Y-3.4511
X1.8637Y-3.8513
X1.8691Y-3.0518
X1.8705Y-4.7705
X1.871Y-5.5563
X1.8713Y-4.5013
X1.8716Y-3.5804
X1.8732Y-4.3704
X1.8733Y-3.9671
X1.874Y-3.4706
X1.8759Y-2.3306
X1.8833Y-3.8155
X1.8861Y-2.2647
X1.8896Y-4.485
X1.8915Y-4.3528
X1.8918Y-3.9496
X1.892Y-2.6012
X1.8927Y-3.0413
X1.8936Y-4.7776
X1.8975Y-3.4608
X1.8976Y-3.5746
X1.9014Y-2.3204
X1.9015Y-5.4561
X1.9033Y-5.5302
X1.9054Y-2.9206
X1.9066Y-3.062
X1.9075Y-3.8142
X1.9106Y-5.6068
X1.9109Y-4.4736
X1.9118Y-4.9035
X1.9127Y-3.4804
X1.9128Y-4.3655
X1.9132Y-3.9618
X1.9221Y-4.8798
X1.927Y-2.2104
X1.9285Y-2.9259
X1.9288Y-3.8331
X1.9294Y-3.0496
X1.9311Y-4.3484
X1.9319Y-3.9465
X1.9321Y-3.5562
X1.9329Y-4.4587
X1.936Y-3.4712
X1.9374Y-2.6132
X1.9377Y-2.3012
X1.94Y-5.005
X1.9407Y-2.9468
X1.9447Y-3.0729
X1.9464Y-4.8856
X1.9482Y-3.9093
X1.9512Y-3.4907
X1.952Y-3.9591
X1.9524Y-4.3611
X1.9548Y-4.8611
X1.956Y-5.6742
X1.9563Y-3.5645
X1.9584Y-4.429
X1.9596Y-4.7306
X1.96Y-2.287
X1.9654Y-2.1556
X1.9686Y-3.0619
X1.9705Y-4.3455
X1.9707Y-3.9439
X1.9718Y-2.2426
X1.972Y-3.9066
X1.9737Y-3.4828
X1.9801Y-4.7171
X1.9818Y-4.8679
X1.9828Y-3.0822
X1.984Y-4.428
X1.989Y-3.5024
X1.9918Y-4.3582
X1.992Y-4.8453
X2.0005Y-2.2348
X2.0018Y-4.7284
X2.0022Y-5.7237
X2.007Y-3.0741
X2.0071Y-4.6879
X2.0076Y-3.8376
X2.0079Y-2.1153
X2.0097Y-4.3416
X2.0099Y-3.9339
X2.0117Y-3.4934
X2.0161Y-4.8491
X2.0206Y-3.0949
X2.0212Y-2.9566
X2.0243Y-5.7081
X2.0269Y-3.513
X2.0281Y-4.8281
X2.0292Y-4.6779
X2.0293Y-3.9516
X2.031Y-4.3543
X2.0316Y-3.834
X2.0323Y-5.4702
X2.0415Y-3.856
X2.0435Y-5.7752
X2.0437Y-3.085
X2.0453Y-2.9606
X2.047Y-3.5612
X2.048Y-3.9364
X2.0489Y-4.3379
X2.0495Y-3.5042
X2.0502Y-2.0594
X2.0526Y-4.8329
X2.0537Y-2.9836
X2.0542Y-4.4039
X2.056Y-4.6879
X2.0597Y-3.1044
X2.0602Y-5.7537
X2.0633Y-5.4349
X2.0635Y-4.8113
X2.064Y-3.8932
X2.0694Y-3.9472
X2.072Y-2.0723
X2.0725Y-2.2123
X2.073Y-2.1049
X2.0822Y-5.8289
X2.0826Y-3.097
X2.085Y-2.9573
X2.0879Y-4.8135
X2.0879Y-3.8911
X2.0881Y-3.932
X2.0934Y-5.2617
X2.0937Y-2.0099
X2.0969Y-3.1161
X2.0998Y-4.7925
X2.1015Y-4.7519
X2.1031Y-3.5341
X2.1032Y-5.8088
X2.1046Y-5.2391
X2.1059Y-2.5629
X2.108Y-2.9649
X2.1097Y-4.3463
X2.1105Y-2.7288
X2.1114Y-3.0683
X2.1152Y-2.2041
X2.1165Y-2.0185
X2.1198Y-3.1087
X2.121Y-2.9903
X2.1228Y-4.7407
X2.1232Y-4.797
X2.1246Y-3.5241
X2.1262Y-4.3292
X2.1311Y-4.6636
X2.1311Y-2.5628
X2.1323Y-5.8713
X2.1329Y-5.2482
X2.1346Y-3.0744
X2.1346Y-3.552
X2.1349Y-2.729
X2.1351Y-4.776
X2.1356Y-2.5922
X2.1408Y-4.0659
X2.1419Y-5.2257
X2.1436Y-1.9611
X2.1456Y-4.3489
X2.1469Y-5.8517
X2.152Y-4.6515
X2.1566Y-2.1208
X2.1583Y-2.7349
X2.1592Y-3.1143
X2.1598Y-2.5902
X2.1644Y-1.9739
X2.1655Y-5.2301
X2.1663Y-2.6133
X2.1673Y-4.7559
X2.1692Y-4.6685
X2.1716Y-3.1372
X2.174Y-5.2048
X2.1766Y-5.9253
X2.1814Y-1.9074
X2.1847Y-2.7388
X2.1871Y-4.057
X2.1872Y-5.9033
X2.1925Y-4.762
X2.1927Y-2.6096
X2.1928Y-3.0231
X2.1945Y-3.1298
X2.1984Y-5.2089
X2.1999Y-2.6333
X2.2034Y-1.9266
X2.2037Y-4.695
X2.2044Y-4.7411
X2.2049Y-3.9809
X2.2091Y-5.1858
X2.2106Y-3.1476
X2.2164Y-3.0284
X2.2176Y-3.0525
X2.2222Y-5.973
X2.2235Y-2.7339
X2.2251Y-3.0954
X2.2252Y-4.6844
X2.2254Y-2.6325
X2.2283Y-4.7434
X2.2296Y-2.2634
X2.2317Y-1.8642
X2.2325Y-2.6563
X2.2335Y-5.19
X2.2335Y-3.1402
X2.237Y-5.9524
X2.2402Y-4.7225
X2.2431Y-2.7504
X2.2439Y-5.3316
X2.2444Y-5.1674
X2.2481Y-3.1021
X2.2545Y-1.8789
X2.2551Y-5.3098
X2.2576Y-2.656
X2.263Y-4.6846
X2.2648Y-2.6797
X2.2659Y-4.5997
X2.2671Y-2.3111
X2.2689Y-5.1716
X2.2695Y-5.9542
X2.2708Y-5.2915
X2.2741Y-6.0199
X2.2793Y-1.8185
X2.2801Y-5.1505
X2.2803Y-3.1138
X2.286Y-5.2696
X2.2887Y-2.6804
X2.29Y-3.1497
X2.2907Y-4.692
X2.2926Y-5.8723
X2.2959Y-2.7041
X2.2968Y-1.8392
X2.299Y-5.2327
X2.3046Y-5.1547
X2.3106Y-6.0658
X2.3153Y-5.1327
X2.3203Y-2.7039
X2.3225Y-5.2225
X2.3246Y-1.7682
X2.3263Y-5.6045
X2.3275Y-2.7276
X2.329Y-2.7798
X2.3397Y-5.1369
X2.3412Y-5.586
X2.3454Y-2.2405
X2.3504Y-5.1151
X2.3518Y-2.7275
X2.3589Y-3.0569
X2.3618Y-6.1089
X2.3653Y-5.5842
X2.3712Y-2.2391
X2.372Y-5.9208
X2.3765Y-5.9641
X2.3768Y-2.2635
X2.3877Y-1.7171
X2.3901Y-5.1634
X2.391Y-2.7746
X2.3925Y-6.0377
X2.3978Y-6.067
X2.4025Y-2.2601
X2.4085Y-2.2873
X2.4095Y-5.5162
X2.4102Y-5.101
X2.4124Y-6.1543
X2.4143Y-2.804
X2.4147Y-2.773
X2.4193Y-5.079
X2.4236Y-5.4962
X2.4263Y-2.131
X2.4283Y-5.6946
X2.4292Y-5.6688
X2.434Y-2.2847
X2.4347Y-1.6732
X2.438Y-5.4591
X2.4406Y-2.3096
X2.441Y-5.812
X2.441Y-6.0826
X2.4441Y-5.0888
X2.446Y-2.1443
X2.4479Y-5.4987
X2.4499Y-2.1681
X2.4528Y-5.6395
X2.4532Y-6.1061
X2.4539Y-5.6653
X2.4549Y-5.4418
X2.4634Y-1.7032
X2.4647Y-2.311
X2.4674Y-6.1985
X2.4692Y-6.1439
X2.4714Y-2.335
X2.4772Y-6.1703
X2.4803Y-5.6101
X2.4805Y-5.6359
X2.4834Y-5.4412
X2.4896Y-1.6296
X2.4918Y-5.7788
X2.4976Y-2.335
X2.5045Y-2.3579
X2.5055Y-5.6058
X2.5089Y-5.5819
X2.5188Y-6.2373
X2.5215Y-2.2062
X2.5224Y-6.2135
X2.5286Y-2.3592
X2.5307Y-1.6299
X2.5334Y-5.5774
X2.5342Y-5.5526
X2.5345Y-1.8264
X2.535Y-2.3821
X2.5372Y-1.695
X2.5423Y-2.243
X2.5426Y-1.5897
X2.5427Y-2.2185
X2.5444Y-5.3911
X2.5493Y-5.4841
X2.5591Y-2.3835
X2.5591Y-5.5464
X2.5595Y-5.3722
X2.5608Y-6.2372
X2.5626Y-5.5225
X2.5643Y-1.5999
X2.565Y-5.4659
X2.5657Y-2.3427
X2.5722Y-6.2767
X2.5723Y-1.8542
X2.5809Y-2.2296
X2.5817Y-5.3817
X2.5852Y-2.3567
X2.5859Y-5.5181
X2.5884Y-2.5563
X2.5894Y-5.4942
X2.5933Y-2.4029
X2.5943Y-1.5514
X2.5972Y-2.4286
X2.5996Y-2.245
X2.6027Y-2.2733
X2.6087Y-2.5816
X2.6099Y-5.4611
X2.6186Y-1.5687
X2.6213Y-2.4299
X2.6213Y-6.2125
X2.6235Y-5.3937
X2.6296Y-6.317
X2.6299Y-2.4523
X2.6376Y-5.4602
X2.6396Y-5.376
X2.641Y-5.4363
X2.6461Y-1.5686
X2.6501Y-6.2809
X2.6523Y-1.5112
X2.654Y-2.4537
X2.6579Y-2.3297
X2.6622Y-2.4088
X2.6641Y-5.4297
X2.6675Y-5.4058
X2.6706Y-2.3661
X2.6781Y-2.3431
X2.6813Y-2.4233
X2.685Y-6.3495
X2.6869Y-1.564
X2.691Y-2.0252
X2.7103Y-1.4756
X2.7129Y-1.559
X2.7137Y-2.0344
X2.7286Y-5.9614
X2.7307Y-5.9363
X2.7333Y-2.0485
X2.7402Y-1.522
X2.7467Y-6.39
X2.7475Y-1.8692
X2.7481Y-6.1777
X2.7564Y-2.0617
X2.7604Y-5.9343
X2.7605Y-5.9101
X2.764Y-6.1336
X2.7644Y-1.9073
X2.7661Y-1.4387
X2.7697Y-1.5253
X2.771Y-1.8783
X2.7795Y-5.454
X2.7827Y-5.8789
X2.784Y-5.9055
X2.7853Y-1.9382
X2.7876Y-1.9143
X2.7943Y-2.0714
X2.7996Y-5.4175
X2.8065Y-2.094
X2.8069Y-5.8738
X2.8076Y-6.4197
X2.8084Y-5.8484
X2.8092Y-1.9691
X2.8104Y-5.4462
X2.8112Y-1.9444
X2.8204Y-1.4168
X2.8227Y-6.3972
X2.8312Y-2.0024
X2.8326Y-5.8433
X2.8332Y-1.9777
X2.8346Y-5.8183
X2.8449Y-1.5308
X2.8526Y-2.0361
X2.8546Y-2.0114
X2.8588Y-5.8132
X2.8616Y-5.7895
X2.8646Y-6.4529
X2.8725Y-6.4269
X2.8725Y-2.0702
X2.8745Y-2.0455
X2.8756Y-2.1527
X2.8802Y-1.3803
X2.8847Y-1.431
X2.8858Y-5.7844
X2.8877Y-5.76
X2.8877Y-1.5388
X2.8933Y-2.1036
X2.8942Y-5.9713
X2.8953Y-2.0789
X2.8958Y-1.4003
X2.8966Y-5.9469
X2.9046Y-5.9241
X2.9093Y-5.859
X2.9107Y-5.8981
X2.912Y-5.755
X2.914Y-5.7308
X2.916Y-2.1124
X2.92Y-6.4893
X2.9274Y-5.841
X2.9324Y-6.4629
X2.9352Y-2.1707
X2.9389Y-1.3502
X2.95Y-2.2056
X2.9567Y-1.4764
X2.9569Y-1.3665
X2.9579Y-2.1779
X2.9641Y-5.758
X2.9644Y-5.6957
X2.9649Y-5.672
X2.982Y-6.5109
X2.9886Y-6.4874
X2.9898Y-1.694
X2.991Y-5.6728
X3.0032Y-1.323
X3.0179Y-1.3426
X3.0427Y-6.5454
X3.0447Y-6.5211
X3.0581Y-1.287
X3.0675Y-6.1923
X3.0715Y-1.3129
X3.0748Y-6.1697
X3.0885Y-1.657
X3.0966Y-6.1593
X3.1023Y-6.5736
X3.1087Y-6.549
X3.1094Y-1.6899
X3.1131Y-1.6652
X3.1135Y-6.0801
X3.1195Y-6.0563
X3.1197Y-6.0165
X3.1206Y-1.2652
X3.1292Y-5.9943
X3.1301Y-1.7237
X3.132Y-6.4544
X3.1345Y-1.6961
X3.1365Y-1.2872
X3.1398Y-6.5391
X3.1431Y-6.05
X3.1518Y-1.7562
X3.1551Y-1.732
X3.1557Y-5.9835
X3.1676Y-6.5988
X3.1711Y-1.7911
X3.1737Y-1.7663
X3.1817Y-1.2402
X3.1866Y-6.2154
X3.1904Y-1.2658
X3.1935Y-1.8246
X3.1946Y-5.9149
X3.195Y-6.2399
X3.1952Y-1.8002
X3.1981Y-6.1796
X3.2019Y-5.8918
X3.2039Y-1.5848
X3.2084Y-6.2033
X3.2123Y-1.628
X3.2131Y-1.8583
X3.2138Y-6.1418
X3.2155Y-1.8346
X3.2174Y-1.6043
X3.2181Y-6.6286
X3.2226Y-6.1663
X3.2235Y-6.4711
X3.2261Y-5.8927
X3.2298Y-6.1058
X3.2325Y-5.9999
X3.235Y-1.8683
X3.2352Y-6.1293
X3.2406Y-5.9774
X3.2421Y-5.7696
X3.2423Y-1.2099
X3.2432Y-6.51
X3.2433Y-6.0687
X3.2511Y-6.0927
X3.2539Y-1.9243
X3.2561Y-1.8328
X3.2583Y-1.8999
X3.2587Y-6.031
X3.264Y-6.0546
X3.265Y-1.6896
X3.269Y-1.853
X3.2694Y-5.889
X3.2708Y-1.7314
X3.2735Y-5.995
X3.2756Y-1.9583
X3.2758Y-1.9343
X3.2781Y-5.8666
X3.2789Y-6.0185
X3.2802Y-1.7088
X3.2805Y-5.9581
X3.2814Y-6.6504
X3.2844Y-6.2957
X3.2846Y-6.573
X3.2964Y-5.8355
X3.2975Y-1.9684
X3.3Y-6.5984
X3.301Y-5.9225
X3.3064Y-5.946
X3.3116Y-1.7332
X3.3144Y-1.1847
X3.3149Y-5.8845
X3.3159Y-1.7818
X3.3202Y-5.908
X3.3216Y-1.9297
X3.3234Y-1.7543
X3.3248Y-5.745
X3.3263Y-5.8271
X3.3341Y-1.9501
X3.3341Y-2.0145
X3.3447Y-1.9844
X3.3449Y-6.6747
X3.3451Y-1.893
X3.3459Y-6.5976
X3.3466Y-1.8545
X3.3596Y-3.272
X3.3605Y-1.8744
X3.3657Y-6.6151
X3.374Y-1.1608
X3.39Y-1.1991
X3.3942Y-6.6447
X3.4111Y-6.6664
X3.4117Y-1.3397
X3.4121Y-6.6963
X3.4369Y-1.3793
X3.441Y-1.14
X3.4584Y-1.9893
X3.4617Y-1.2181
X3.4688Y-6.6905
X3.474Y-6.714
X3.4792Y-1.1551
X3.4857Y-1.5816
X3.5018Y-2.0292
X3.5035Y-1.5984
X3.5048Y-1.1219
X3.5102Y-2.8118
X3.5131Y-6.6989
X3.5167Y-1.6186
X3.5214Y-1.1393
X3.5335Y-1.6393
X3.5379Y-6.7317
X3.5529Y-1.9816
X3.5608Y-6.6542
X3.5639Y-6.3571
X3.5653Y-1.6621
X3.5669Y-1.1049
X3.5685Y-1.6875
X3.571Y-6.3813
X3.5737Y-3.4465
X3.5823Y-6.3219
X3.5833Y-1.1299
X3.5873Y-6.3472
X3.5919Y-6.2849
X3.5948Y-1.4566
X3.5968Y-1.4983
X3.5986Y-2.9398
X3.6013Y-6.3075
X3.6049Y-6.2472
X3.6051Y-1.5346
X3.6059Y-6.7487
X3.609Y-1.1397
X3.6117Y-1.7673
X3.6122Y-6.7077
X3.6127Y-6.2715
X3.6134Y-1.4736
X3.6159Y-1.5132
X3.6162Y-1.5721
X3.6186Y-6.2098
X3.6246Y-1.6111
X3.6258Y-6.2338
X3.627Y-1.5498
X3.6306Y-3.4605
X3.6324Y-1.6502
X3.6335Y-6.1732
X3.6354Y-1.5888
X3.6355Y-1.0884
X3.6369Y-2.7163
X3.6387Y-1.6892
X3.6394Y-6.1963
X3.6432Y-1.6279
X3.646Y-1.7279
X3.6473Y-6.1363
X3.6487Y-1.1502
X3.6495Y-1.6669
X3.6543Y-6.1597
X3.6549Y-2.8363
X3.6568Y-1.7056
X3.6577Y-3.028
X3.6608Y-1.8056
X3.6614Y-6.0995
X3.6635Y-1.8412
X3.6639Y-1.7443
X3.6682Y-6.1229
X3.6693Y-6.7593
X3.6703Y-6.5321
X3.671Y-6.5881
X3.6747Y-1.1549
X3.6785Y-2.8331
X3.6793Y-1.8205
X3.6878Y-6.0264
X3.6959Y-6.0488
X3.7Y-3.3376
X3.7024Y-1.0762
X3.7029Y-6.221
X3.7134Y-6.1976
X3.7135Y-1.1303
X3.7141Y-6.018
X3.7179Y-6.107
X3.7183Y-6.257
X3.7219Y-6.2834
X3.7226Y-6.3075
X3.7291Y-6.3311
X3.7399Y-1.144
X3.7599Y-3.0416
X3.763Y-3.3013
X3.7673Y-3.5181
X3.7678Y-1.062
X3.808Y-1.1763
X3.8264Y-1.0612
X3.845Y-1.1993
X3.8456Y-3.3452
X3.8812Y-1.0977
X3.8841Y-1.3809
X3.8875Y-2.8564
X3.8889Y-1.3204
X3.8908Y-3.0733
X3.8953Y-1.0488
X3.9026Y-1.0731
X3.9319Y-1.1661
X3.9425Y-3.6192
X3.9427Y-1.8438
X3.9468Y-3.3457
X3.9535Y-3.579
X3.9565Y-1.8113
X3.9609Y-1.0419
X3.9718Y-1.0637
X3.9895Y-1.3821
X3.997Y-1.4203
X4.0041Y-1.4593
X4.0094Y-1.3986
X4.0126Y-1.4975
X4.018Y-1.537
X4.0182Y-1.4352
X4.0247Y-1.4764
X4.0268Y-1.5763
X4.0294Y-1.5148
X4.0307Y-1.0399
X4.0319Y-4.5809
X4.0328Y-1.6148
X4.0364Y-1.554
X4.0373Y-1.0634
X4.0436Y-1.5936
X4.047Y-1.6911
X4.0472Y-3.6772
X4.0496Y-1.6321
X4.0549Y-1.7307
X4.0596Y-1.67
X4.0638Y-1.7084
X4.0717Y-1.748
X4.0821Y-1.6066
X4.0851Y-3.28
X4.0869Y-1.6301
X4.0949Y-1.0261
X4.0953Y-4.2726
X4.098Y-1.0551
X4.1082Y-1.7206
X4.1124Y-1.7442
X4.1145Y-4.2302
X4.1146Y-4.5665
X4.115Y-3.2895
X4.1154Y-1.3998
X4.1232Y-1.3565
X4.1287Y-1.3796
X4.1325Y-1.5174
X4.135Y-3.238
X4.1422Y-1.4763
X4.1433Y-1.6949
X4.1494Y-1.4997
X4.1546Y-4.5863
X4.1563Y-1.5807
X4.1587Y-1.6596
X4.1611Y-1.0284
X4.1644Y-1.6831
X4.1679Y-1.0547
X4.1699Y-1.5338
X4.1733Y-1.5578
X4.174Y-4.2315
X4.1757Y-3.2127
X4.1893Y-4.5954
X4.1932Y-4.2716
X4.1932Y-4.4605
X4.2177Y-4.2791
X4.2208Y-4.5937
X4.2238Y-3.2559
X4.2259Y-1.0542
X4.2271Y-1.0272
X4.284Y-4.5809
X4.2945Y-1.0209
X4.3118Y-4.2763
X4.3162Y-4.5802
X4.3307Y-2.3008
X4.3509Y-4.2419
X4.3784Y-4.5834
X4.3804Y-2.2826
X4.3906Y-4.3007
X4.4057Y-1.0253
X4.4173Y-1.4574
X4.4276Y-1.4796
X4.4299Y-4.297
X4.4324Y-1.5033
X4.4385Y-1.2053
X4.4403Y-1.5287
X4.4472Y-1.2514
X4.4549Y-1.5865
X4.4614Y-1.5617
X4.4654Y-1.6766
X4.4686Y-2.2295
X4.4699Y-1.0252
X4.4705Y-1.0667
X4.4729Y-4.5918
X4.4834Y-1.7638
X4.4967Y-1.7304
X4.5041Y-4.5945
X4.5084Y-1.7511
X4.5087Y-4.2962
X4.5118Y-1.6528
X4.5194Y-1.6141
X4.5224Y-1.6746
X4.5271Y-4.2806
X4.5281Y-1.5756
X4.5301Y-1.111
X4.5302Y-1.6361
X4.5354Y-1.5364
X4.5368Y-4.6135
X4.5378Y-1.5974
X4.5398Y-1.0308
X4.542Y-1.497
X4.5457Y-1.4581
X4.5464Y-1.5589
X4.547Y-4.5297
X4.5496Y-4.3036
X4.5514Y-1.4213
X4.5537Y-1.5197
X4.5603Y-1.4803
X4.5636Y-1.4422
X4.5651Y-1.3819
X4.5668Y-4.5706
X4.5697Y-1.059
X4.576Y-1.4045
X4.5992Y-4.5969
X4.6058Y-1.0377
X4.6084Y-1.8323
X4.6147Y-1.06
X4.6268Y-4.2398
X4.6304Y-4.5705
X4.6465Y-4.2546
X4.6621Y-4.5912
X4.6675Y-4.2394
X4.6698Y-1.0449
X4.6757Y-1.0742
X4.6818Y-4.0689
X4.6858Y-4.2562
X4.6936Y-4.5686
X4.6959Y-1.0929
X4.7055Y-4.2387
X4.7191Y-6.7888
X4.7242Y-4.5858
X4.7252Y-4.2559
X4.7289Y-1.1174
X4.7396Y-1.0551
X4.7449Y-4.2364
X4.7455Y-1.8734
X4.7499Y-6.1365
X4.7513Y-1.1314
X4.752Y-6.2393
X4.7568Y-1.8459
X4.7578Y-4.5661
X4.7592Y-6.2625
X4.7594Y-6.0992
X4.7646Y-4.2559
X4.7651Y-6.214
X4.766Y-1.8962
X4.782Y-6.0455
X4.7846Y-6.7716
X4.785Y-6.2928
X4.7889Y-6.7441
X4.7899Y-6.0681
X4.7902Y-4.5642
X4.7958Y-6.3147
X4.7964Y-1.123
X4.7988Y-6.2726
X4.8062Y-1.0686
X4.8159Y-1.1455
X4.8215Y-6.0352
X4.8248Y-6.408
X4.8256Y-6.154
X4.834Y-6.4299
X4.8341Y-6.1764
X4.8347Y-6.3859
X4.8357Y-6.073
X4.8409Y-6.0496
X4.8411Y-6.7296
X4.8476Y-6.1095
X4.8496Y-6.7598
X4.8618Y-1.419
X4.8621Y-6.146
X4.8671Y-1.2008
X4.8722Y-1.0797
X4.8744Y-6.1833
X4.8814Y-6.1604
X4.8823Y-1.9381
X4.8883Y-6.2207
X4.8887Y-1.3646
X4.8905Y-1.8072
X4.8929Y-1.2359
X4.8936Y-6.1974
X4.8966Y-1.9106
X4.8978Y-1.7675
X4.8996Y-1.8295
X4.9009Y-6.2585
X4.907Y-1.7898
X4.9075Y-6.7233
X4.9086Y-6.2348
X4.9123Y-6.2976
X4.913Y-1.6914
X4.9153Y-6.7514
X4.9169Y-1.7526
X4.9203Y-6.2729
X4.9217Y-1.6534
X4.9222Y-1.7137
X4.9249Y-6.3353
X4.9269Y-1.1007
X4.9281Y-1.6137
X4.9307Y-1.6755
X4.9349Y-6.3092
X4.9378Y-1.575
X4.9388Y-1.8411
X4.939Y-1.6366
X4.9395Y-6.3699
X4.9437Y-1.8176
X4.9441Y-1.5364
X4.947Y-1.5973
X4.9482Y-6.3465
X4.952Y-1.4975
X4.9568Y-1.5593
X4.9575Y-1.7257
X4.9592Y-1.4593
X4.9618Y-6.383
X4.9618Y-1.7021
X4.9643Y-1.155
X4.9661Y-6.7053
X4.9661Y-1.5192
X4.9716Y-1.482
X4.9764Y-6.7274
X4.9858Y-1.8068
X4.9859Y-1.2373
X4.9933Y-1.1401
X4.9955Y-1.1148
X4.9992Y-1.9122
X5.0008Y-5.8447
X5.0098Y-1.8037
X5.0132Y-1.7798
X5.0236Y-4.8292
X5.0245Y-5.855
X5.0307Y-6.6944
X5.0343Y-5.8969
X5.0403Y-1.7056
X5.0417Y-1.638
X5.045Y-6.7141
X5.0535Y-6.5869
X5.059Y-1.1328
X5.061Y-1.1571
X5.064Y-1.6278
X5.0646Y-1.6907
X5.066Y-6.3672
X5.066Y-1.6034
X5.0695Y-1.5225
X5.0704Y-1.6671
X5.0894Y-1.5086
X5.0915Y-4.6682
X5.0928Y-1.4851
X5.0975Y-6.6739
X5.1086Y-6.6967
X5.1146Y-6.6462
X5.1219Y-1.1811
X5.1245Y-1.1568
X5.1339Y-6.5401
X5.1741Y-6.5568
X5.1746Y-6.6733
X5.1814Y-1.1959
X5.1893Y-1.1679
X5.197Y-5.9002
X5.2095Y-5.8769
X5.2177Y-5.912
X5.2246Y-5.973
X5.2323Y-6.6631
X5.2378Y-6.01
X5.2449Y-5.9862
X5.2464Y-1.2215
X5.2466Y-6.5777
X5.2499Y-1.1946
X5.2513Y-6.047
X5.2568Y-1.9944
X5.2583Y-6.0233
X5.2638Y-6.0845
X5.2664Y-1.8991
X5.2708Y-6.0607
X5.2748Y-6.5869
X5.2778Y-5.9461
X5.2778Y-6.1218
X5.2794Y-1.9841
X5.2804Y-1.9601
X5.2849Y-6.0981
X5.2893Y-1.8113
X5.2924Y-6.1589
X5.2945Y-6.6385
X5.2967Y-1.7522
X5.2986Y-1.7256
X5.2995Y-6.1352
X5.3005Y-1.2426
X5.3012Y-1.6774
X5.3028Y-1.7018
X5.3044Y-1.7906
X5.3091Y-6.5564
X5.3093Y-6.1933
X5.3116Y-1.218
X5.3165Y-6.1704
X5.3181Y-6.2319
X5.3183Y-1.8938
X5.3202Y-1.918
X5.3279Y-6.0136
X5.3305Y-6.2049
X5.3351Y-6.0381
X5.3356Y-6.5568
X5.3392Y-6.2457
X5.3394Y-1.8605
X5.3415Y-1.8848
X5.3586Y-6.6156
X5.3615Y-1.8277
X5.3626Y-1.8516
X5.3754Y-6.0533
X5.3764Y-6.5607
X5.3765Y-1.2372
X5.3778Y-5.7432
X5.3825Y-1.7938
X5.3846Y-1.8188
X5.3884Y-5.6497
X5.3985Y-6.0675
X5.3993Y-1.4891
X5.403Y-1.7596
X5.4034Y-6.5663
X5.4056Y-1.7849
X5.4097Y-1.4371
X5.4188Y-6.0846
X5.4205Y-1.7247
X5.4257Y-6.5897
X5.4261Y-1.7507
X5.4392Y-6.0996
X5.4393Y-1.6925
X5.4431Y-1.7164
X5.4474Y-1.2706
X5.4621Y-6.5464
X5.4663Y-1.6607
X5.4683Y-1.6858
X5.4821Y-6.5615
X5.4862Y-5.6125
X5.4875Y-5.6373
X5.4927Y-1.3327
X5.502Y-6.5246
X5.5038Y-5.7979
X5.5072Y-1.2938
X5.5091Y-6.4596
X5.5158Y-5.777
X5.5171Y-5.7188
X5.5207Y-5.8152
X5.5321Y-1.3956
X5.5328Y-5.7369
X5.5422Y-6.5333
X5.5431Y-6.3134
X5.5502Y-5.6947
X5.5603Y-5.9101
X5.5631Y-5.8817
X5.5703Y-1.3244
X5.5734Y-5.701
X5.5755Y-5.929
X5.5772Y-5.7247
X5.583Y-6.4667
X5.587Y-6.3551
X5.5879Y-1.3615
X5.5975Y-5.8038
X5.598Y-5.7583
X5.6005Y-5.7309
X5.6049Y-6.5019
X5.6105Y-5.9478
X5.6136Y-5.8215
X5.615Y-2.1752
X5.6154Y-2.1993
X5.616Y-5.9239
X5.6287Y-5.9642
X5.6289Y-5.7824
X5.6293Y-1.3548
X5.6295Y-1.3788
X5.6363Y-2.1409
X5.6367Y-2.165
X5.6477Y-2.2243
X5.6518Y-5.7892
X5.6536Y-5.813
X5.6599Y-6.4687
X5.6604Y-2.1351
X5.6608Y-2.2042
X5.6638Y-3.7658
X5.6766Y-5.8192
X5.678Y-2.0755
X5.6785Y-2.0996
X5.68Y-5.8447
X5.6811Y-1.4143
X5.6863Y-1.3848
X5.6898Y-6.0403
X5.6909Y-6.0162
X5.6932Y-1.439
X5.7Y-2.0433
X5.7004Y-2.0674
X5.704Y-2.2094
X5.7043Y-5.8484
X5.7059Y-5.8734
X5.7064Y-6.0574
X5.7071Y-2.1236
X5.715Y-1.4738
X5.7196Y-2.1032
X5.7204Y-2.0085
X5.7222Y-2.0336
X5.7275Y-2.2153
X5.7292Y-5.8796
X5.7293Y-1.8031
X5.7303Y-5.9051
X5.7308Y-1.495
X5.7311Y-6.4333
X5.7394Y-2.1942
X5.7434Y-1.976
X5.7439Y-2.0001
X5.7476Y-1.4196
X5.756Y-5.9081
X5.7563Y-5.936
X5.7633Y-1.9423
X5.7672Y-1.9678
X5.773Y-6.3696
X5.7759Y-1.5035
X5.7821Y-5.9379
X5.7826Y-5.9629
X5.7848Y-1.909
X5.7857Y-6.3934
X5.7859Y-1.5316
X5.7901Y-1.9343
X5.7915Y-2.1349
X5.8048Y-1.4564
X5.805Y-3.7603
X5.8054Y-1.876
X5.8081Y-5.9669
X5.8087Y-1.9016
X5.8135Y-1.6017
X5.8174Y-2.0725
X5.8196Y-2.1298
X5.8225Y-6.3395
X5.8248Y-1.6438
X5.8335Y-2.11
X5.8418Y-2.0711
X5.8418Y-6.3586
X5.8501Y-5.4315
X5.8525Y-2.0491
X5.8545Y-5.4028
X5.8623Y-1.4908
X5.8736Y-5.4348
X5.8824Y-6.3033
X5.8847Y-2.4781
X5.8853Y-1.9749
X5.8993Y-5.914
X5.8999Y-6.3267
X5.9023Y-5.4891
X5.9056Y-1.5302
X5.9088Y-1.9693
X5.9098Y-3.8651
X5.9109Y-1.6789
X5.9132Y-2.4828
X5.9204Y-2.4593
X5.9205Y-1.9486
X5.9207Y-1.5943
X5.9261Y-5.494
X5.9261Y-5.9684
X5.9282Y-5.5187
X5.9296Y-2.4004
X5.9302Y-6.2651
X5.9354Y-5.4426
X5.9479Y-6.2819
X5.9522Y-5.5235
X5.9531Y-1.591
X5.9543Y-5.5482
X5.9644Y-1.5682
X5.9682Y-6.1229
X5.9767Y-2.4367
X5.9776Y-5.5538
X5.9797Y-5.5785
X5.9826Y-2.3268
X5.9835Y-2.4134
X5.9864Y-6.2313
X5.999Y-2.7822
X6.0041Y-2.3128
X6.0043Y-5.5834
X6.0064Y-5.608
X6.0069Y-6.2445
X6.0073Y-2.4125
X6.01Y-1.6314
X6.0108Y-2.2743
X6.0134Y-5.489
X6.015Y-2.3894
X6.017Y-1.608
X6.0171Y-2.8351
X6.0189Y-2.7446
X6.0221Y-2.2502
X6.0258Y-6.0499
X6.0291Y-5.5092
X6.0315Y-5.6126
X6.0336Y-5.6372
X6.0345Y-2.2295
X6.0395Y-2.3876
X6.041Y-6.1878
X6.0419Y-2.2061
X6.0437Y-2.7263
X6.0455Y-2.3641
X6.0468Y-6.1557
X6.0581Y-1.6759
X6.0597Y-6.205
X6.0602Y-5.6391
X6.0619Y-5.663
X6.0693Y-1.6543
X6.0694Y-6.0507
X6.0707Y-2.3675
X6.0758Y-2.344
X6.0769Y-5.5089
X6.0814Y-5.1441
X6.0843Y-5.6957
X6.0859Y-5.666
X6.0873Y-2.8572
X6.0973Y-5.2228
X6.1006Y-2.3441
X6.101Y-5.1989
X6.1025Y-5.1554
X6.1036Y-5.1098
X6.107Y-5.5141
X6.1081Y-1.7113
X6.109Y-5.7008
X6.1101Y-2.318
X6.1125Y-6.159
X6.1192Y-5.2328
X6.1256Y-1.688
X6.1276Y-5.1073
X6.1285Y-4.1573
X6.1326Y-5.5235
X6.1345Y-2.3178
X6.1396Y-5.1281
X6.1406Y-2.2924
X6.1444Y-6.0436
X6.1505Y-2.8052
X6.1565Y-2.7814
X6.1586Y-5.5329
X6.1594Y-1.7588
X6.1624Y-6.1283
X6.1633Y-2.8971
X6.1636Y-5.1255
X6.1652Y-2.2911
X6.1683Y-2.8411
X6.1706Y-2.2663
X6.1712Y-5.1518
X6.1724Y-1.735
X6.1741Y-6.0419
X6.1804Y-2.7814
X6.1827Y-5.2797
X6.1868Y-5.1946
X6.1877Y-2.8271
X6.1883Y-2.758
X6.1902Y-5.3072
X6.1949Y-6.0009
X6.1975Y-2.2698
X6.2017Y-2.0676
X6.2021Y-1.7981
X6.2059Y-2.2472
X6.2083Y-5.2054
X6.2083Y-5.1641
X6.2112Y-5.3194
X6.2114Y-6.0827
X6.2125Y-2.7568
X6.2196Y-5.9916
X6.2214Y-1.7792
X6.2261Y-2.8475
X6.2303Y-2.0189
X6.2323Y-5.1616
X6.2423Y-5.1832
X6.2441Y-2.7339
X6.2459Y-2.8614
X6.2472Y-5.3002
X6.2507Y-5.3244
X6.2519Y-2.7114
X6.2591Y-5.9803
X6.2599Y-2.7685
X6.2626Y-6.0379
X6.2646Y-2.846
X6.2663Y-5.1807
X6.2735Y-5.3332
X6.2749Y-1.8206
X6.2766Y-2.7112
X6.2766Y-5.2023
X6.279Y-2.754
X6.2817Y-4.7303
X6.2839Y-2.6881
X6.2862Y-5.9755
X6.2893Y-4.7566
X6.2942Y-4.3788
X6.3006Y-3.1598
X6.3026Y-5.1981
X6.3085Y-2.6878
X6.3124Y-4.7512
X6.313Y-5.2207
X6.313Y-5.9886
X6.3146Y-2.6639
X6.3233Y-3.1764
X6.3247Y-1.8792
X6.3325Y-4.3613
X6.3345Y-5.9358
X6.3346Y-2.8095
X6.3367Y-3.1568
X6.337Y-5.2182
X6.3389Y-2.6628
X6.3446Y-1.9535
X6.3454Y-5.8375
X6.3468Y-5.241
X6.3475Y-2.6404
X6.3501Y-5.6875
X6.3502Y-5.3594
X6.3577Y-5.9422
X6.3578Y-5.3824
X6.3587Y-4.7916
X6.3587Y-2.0263
X6.3626Y-2.8148
X6.3627Y-5.9006
X6.3663Y-4.4366
X6.3705Y-4.2544
X6.371Y-3.1048
X6.3721Y-1.9224
X6.3723Y-5.2352
X6.3729Y-4.7363
X6.3735Y-4.2238
X6.3738Y-2.642
X6.3787Y-2.6166
X6.379Y-3.9454
X6.3794Y-5.3924
X6.3812Y-2.7605
X6.3825Y-5.2612
X6.3826Y-4.7877
X6.3827Y-2.8013
X6.3903Y-5.7067
X6.3935Y-4.8099
X6.396Y-2.4775
X6.3981Y-3.155
X6.4027Y-4.4051
X6.4032Y-5.894
X6.4045Y-2.768
X6.4055Y-2.6218
X6.4061Y-4.2136
X6.4073Y-5.2537
X6.4109Y-4.365
X6.4126Y-2.5953
X6.413Y-3.1359
X6.4167Y-5.2769
X6.4168Y-5.8171
X6.4176Y-4.8059
X6.42Y-1.9737
X6.4224Y-2.7514
X6.4231Y-2.0147
X6.4264Y-3.5619
X6.4265Y-4.4079
X6.4284Y-4.8281
X6.4323Y-4.354
X6.4334Y-3.6022
X6.4361Y-3.1449
X6.4372Y-2.5965
X6.4405Y-3.9458
X6.4409Y-4.449
X6.442Y-5.2714
X6.4423Y-3.5438
X6.4446Y-2.5737
X6.446Y-4.4726
X6.4472Y-3.0555
X6.4501Y-5.8418
X6.451Y-3.1256
X6.451Y-4.369
X6.4521Y-4.825
X6.4526Y-2.4555
X6.4556Y-3.9685
X6.4557Y-2.0458
X6.4565Y-3.5961
X6.4623Y-4.7517
X6.4629Y-4.8473
X6.4641Y-2.0233
X6.4652Y-3.5509
X6.4702Y-4.474
X6.4723Y-3.0503
X6.4725Y-4.3579
X6.4741Y-3.1346
X6.4752Y-3.9551
X6.4796Y-2.694
X6.4812Y-3.5328
X6.4842Y-4.7649
X6.4849Y-3.6291
X6.4876Y-4.8431
X6.4891Y-5.7908
X6.4892Y-4.3758
X6.4894Y-3.1163
X6.4911Y-2.0974
X6.4925Y-3.0168
X6.4934Y-2.1248
X6.4983Y-3.6492
X6.4985Y-4.8654
X6.5012Y-2.1651
X6.5032Y-3.5433
X6.5036Y-2.6971
X6.5064Y-2.0718
X6.5081Y-5.1894
X6.5083Y-2.1906
X6.5118Y-2.9984
X6.5125Y-3.1253
X6.5193Y-4.4138
X6.5213Y-3.6417
X6.5218Y-4.754
X6.522Y-2.6821
X6.5235Y-4.8606
X6.5261Y-3.9193
X6.5278Y-3.1054
X6.5282Y-4.3776
X6.53Y-2.9786
X6.5329Y-3.9759
X6.5343Y-4.8829
X6.5372Y-5.7345
X6.5402Y-3.5307
X6.5425Y-2.3632
X6.5431Y-4.4161
X6.5451Y-3.5678
X6.546Y-2.9582
X6.5463Y-4.4946
X6.5465Y-2.2445
X6.5471Y-2.3199
X6.5474Y-2.2148
X6.5485Y-4.7536
X6.5496Y-4.3665
X6.5508Y-3.1144
X6.5511Y-2.1264
X6.5534Y-5.66
X6.5538Y-3.9635
X6.5561Y-3.5126
X6.5598Y-4.8751
X6.5633Y-4.5175
X6.566Y-3.094
X6.5671Y-4.3829
X6.5682Y-3.5611
X6.57Y-4.8968
X6.572Y-3.9804
X6.5739Y-5.6776
X6.5773Y-4.7483
X6.5781Y-3.5217
X6.5873Y-4.5212
X6.5882Y-4.372
X6.5889Y-5.6141
X6.5891Y-3.103
X6.5912Y-2.1813
X6.593Y-3.9678
X6.5935Y-4.891
X6.594Y-3.5036
X6.5998Y-3.6331
X6.6025Y-3.08
X6.6026Y-4.9193
X6.6042Y-4.748
X6.6071Y-4.3864
X6.6102Y-2.427
X6.6112Y-3.9846
X6.6138Y-5.625
X6.6138Y-4.4902
X6.615Y-3.9011
X6.6168Y-3.5116
X6.624Y-3.6482
X6.6247Y-3.0891
X6.6258Y-4.5115
X6.6275Y-4.9152
X6.6284Y-4.375
X6.6318Y-5.5589
X6.6321Y-3.9731
X6.6325Y-2.234
X6.6325Y-3.4918
X6.638Y-3.0688
X6.6403Y-3.9055
X6.6463Y-4.3923
X6.6473Y-5.3598
X6.6476Y-3.643
X6.6497Y-2.3516
X6.6503Y-4.5115
X6.6503Y-3.9899
X6.6555Y-3.5014
X6.6565Y-5.5744
X6.6587Y-2.2864
X6.661Y-3.6044
X6.6628Y-5.5061
X6.664Y-3.0835
X6.6679Y-4.3783
X6.6705Y-3.4819
X6.6713Y-3.8817
X6.6718Y-3.977
X6.675Y-5.2709
X6.6795Y-3.0636
X6.68Y-3.6199
X6.6812Y-2.3602
X6.6853Y-4.3953
X6.6854Y-5.5154
X6.69Y-3.9938
X6.6929Y-3.4899
X6.6956Y-3.868
X6.6999Y-2.343
X6.7028Y-3.6108
X6.7031Y-5.4544
X6.7067Y-4.3843
X6.7089Y-3.4718
X6.7116Y-3.9803
X6.7159Y-5.2561
X6.7197Y-3.8623
X6.7197Y-2.4184
X6.7257Y-4.4048
X6.727Y-5.4594
X6.7298Y-3.9971
X6.7313Y-4.5081
X6.7324Y-5.3622
X6.734Y-3.484
X6.7346Y-2.3991
X6.7385Y-5.3942
X6.7419Y-3.8458
X6.7461Y-4.3888
X6.7463Y-2.8861
X6.7468Y-4.5266
X6.7472Y-3.4617
X6.7485Y-2.4772
X6.7507Y-3.9806
X6.7621Y-5.4035
X6.7633Y-4.407
X6.7668Y-2.4611
X6.768Y-3.9972
X6.7698Y-3.4724
X6.7705Y-4.5281
X6.7769Y-3.5781
X6.7776Y-3.3461
X6.7824Y-2.5283
X6.7834Y-5.2225
X6.7847Y-3.4512
X6.7849Y-4.3927
X6.7878Y-3.9832
X6.79Y-2.8577
X6.795Y-5.3417
X6.7981Y-3.5898
X6.8012Y-4.8304
X6.8066Y-4.0063
X6.8072Y-2.5128
X6.8105Y-5.2103
X6.8132Y-2.591
X6.8152Y-5.1646
X6.8166Y-4.2922
X6.8207Y-3.5825
X6.8283Y-3.9934
X6.8306Y-5.2952
X6.8339Y-2.5735
X6.8349Y-5.147
X6.8389Y-2.643
X6.8469Y-4.8377
X6.8599Y-5.235
X6.8637Y-2.6323
X6.8678Y-5.1223
X6.8731Y-4.3144
X6.8913Y-5.1082
X6.8917Y-5.1749
X6.8972Y-4.9581
X6.8987Y-2.6903
X6.9068Y-2.9122
X6.9201Y-2.8392
X6.9211Y-5.1108
X6.9222Y-5.0537
X6.9285Y-2.7627
X6.9359Y-5.0108
X6.9462Y-5.0515
X6.9556Y-3.2928
X6.9565Y-4.9135
X6.957Y-2.8203
X6.9607Y-3.8462
X6.971Y-2.9247
X6.9714Y-4.9901
X6.9756Y-3.2541
X6.983Y-2.8854
X6.9865Y-3.1196
X6.9891Y-3.0933
X6.99Y-2.9655
X6.9955Y-3.3769
X6.9965Y-3.0529
X6.9965Y-4.9246
X7.0018Y-4.3076
X7.0025Y-3.1837
X7.0032Y-3.8414
X7.0042Y-3.0265
X7.0061Y-2.9476
X7.0083Y-4.4004
X7.0141Y-3.1563
X7.0146Y-4.863
X7.0279Y-3.0082
X7.0299Y-4.7142
X7.0345Y-4.2789
X7.0418Y-4.7896
X7.0463Y-4.6586
X7.0497Y-3.0753
X7.0554Y-4.7232
X7.0597Y-3.3209
X7.0662Y-4.5916
X7.0671Y-3.141
X7.0734Y-4.6597
X7.0759Y-4.5311
X7.0852Y-4.2231
X7.0859Y-3.3403
X7.0864Y-3.2051
X7.0885Y-4.3718
X7.0918Y-3.2634
X7.0938Y-4.1576
X7.0946Y-4.4684
X7.0948Y-4.5971
X7.0952Y-3.9354
X7.1003Y-4.5316
X7.1007Y-3.4086
X7.1058Y-4.3994
X7.1058Y-4.1341
X7.106Y-4.2019
X7.1062Y-3.4739
X7.1096Y-3.3312
X7.1187Y-4.4643
X7.1192Y-3.5337
X7.1216Y-3.396
X7.1251Y-3.6034
X7.1274Y-4.0991
X7.1291Y-3.4654
X7.1301Y-3.6612
X7.1311Y-4.3995
X7.1342Y-3.8723
X7.1393Y-4.33
X7.1442Y-4.0774
X7.1479Y-3.5284
X7.1504Y-3.9705
X7.1508Y-3.5945
X7.1532Y-4.0154
X7.1556Y-4.2737
X7.1571Y-3.6602
X7.161Y-4.207
X7.1687Y-3.7269
X7.1688Y-4.1394
X7.17Y-3.8042
X7.1729Y-4.069
X7.1747Y-4.0046
X7.1755Y-3.8681
X7.1759Y-3.9383
T2
X2.1635Y-3.5333
X2.1675Y-4.3272
X2.2365Y-4.2067
X2.4463Y-2.8012
X2.4547Y-5.0575
X2.6329Y-2.6881
X2.9456Y-5.4141
X2.9784Y-2.2117
X2.9931Y-5.6435
X3.6844Y-4.0098
X3.6891Y-1.8613
X3.6989Y-5.9883
X3.7217Y-4.0482
X3.723Y-4.1449
X3.7416Y-3.6849
X3.7582Y-3.929
X3.7745Y-4.0428
X3.7773Y-3.9689
X3.7846Y-4.0105
X3.8914Y-2.2439
X3.8937Y-2.3903
X3.8969Y-2.3514
X3.9515Y-3.6969
X4.0549Y-3.756
X4.2372Y-4.3044
X4.397Y-2.6991
X4.3978Y-2.8172
X4.3979Y-2.758
X4.3983Y-2.64
X4.4023Y-2.9353
X4.4259Y-2.8507
X4.4296Y-2.7869
X4.4359Y-2.6698
X4.4419Y-2.6073
X4.458Y-2.8454
X4.4612Y-2.7805
X4.4628Y-2.6859
X4.4628Y-2.7133
X4.4715Y-2.6088
X4.4774Y-2.826
X4.4806Y-2.7611
X4.4894Y-2.7304
X4.4909Y-2.6282
X4.499Y-1.7909
X4.5093Y-2.827
X4.5139Y-2.76
X4.5165Y-3.0738
X4.5182Y-2.9837
X4.5237Y-2.6303
X4.5272Y-2.5716
X4.5291Y-2.6504
X4.5292Y-2.8275
X4.5304Y-2.7291
X4.5307Y-2.7685
X4.6397Y-3.0085
X4.6712Y-3.0083
X4.6718Y-3.9944
X4.7381Y-6.7717
X4.7419Y-3.6169
X4.7512Y-3.5848
X4.7701Y-3.007
X4.7971Y-3.6575
X4.828Y-4.2335
X4.856Y-6.0868
X4.8896Y-3.5444
X4.9003Y-3.6378
X4.9146Y-3.69
X4.961Y-3.8808
X4.9874Y-3.5824
X4.9877Y-4.7318
X5.0212Y-4.5379
X5.0628Y-4.8314
X5.0633Y-4.6668
X5.0849Y-3.5824
X5.0873Y-4.8306
X5.1567Y-4.2949
X5.1748Y-3.4809
X5.1871Y-4.3045
X5.1903Y-4.407
X5.1919Y-5.8563
X5.2087Y-4.2913
X5.211Y-4.1109
X5.2322Y-4.8536
X5.2329Y-3.7572
X5.261Y-2.0193
X5.5179Y-2.4265
X5.8223Y-5.4038
X5.8746Y-2.5013
X6.2546Y-4.7279
X6.2855Y-3.1876
X6.4145Y-3.9591
T3
X1.6462Y-4.329
X1.6776Y-3.3496
X1.9718Y-5.2524
X2.0599Y-2.4499
X2.612Y-5.9973
X2.7462Y-1.7472
X3.475Y-6.4566
X3.6377Y-1.3424
X4.6473Y-1.2918
X5.3154Y-6.3653
X5.5757Y-1.6066
X6.1306Y-5.8209
X6.3234Y-2.2389
X6.6907Y-5.0195
X6.7967Y-3.0974
X6.9251Y-4.0677
T4
X2.068Y-4.4439
X2.0912Y-4.3836
X2.1359Y-3.6736
X2.2138Y-4.4299
X2.2227Y-4.2726
X2.2392Y-3.5994
X2.2393Y-3.5065
X2.2542Y-3.6611
X2.2967Y-2.8226
X2.3551Y-2.7945
X2.3597Y-2.922
X2.4932Y-4.9896
X2.5244Y-2.7959
X2.5296Y-5.1621
X2.5458Y-5.039
X2.6005Y-5.0691
X2.7899Y-3.3309
X2.8656Y-2.2892
X2.9548Y-2.3624
X2.9762Y-5.7306
X2.9853Y-2.308
X3.0016Y-5.806
X3.0033Y-5.5635
X3.0304Y-3.4425
X3.0331Y-3.3309
X3.0535Y-2.2427
X3.0912Y-3.2078
X3.1052Y-5.7485
X3.243Y-3.2078
X3.2506Y-3.2999
X3.2516Y-3.3499
X3.2773Y-4.1857
X3.4291Y-3.2804
X3.4663Y-3.2499
X3.468Y-3.1999
X3.5033Y-2.5595
X3.5033Y-2.7057
X3.5056Y-2.8986
X3.5056Y-3.0539
X3.5502Y-1.8841
X3.5667Y-1.7708
X3.5796Y-3.2093
X3.5796Y-3.3548
X3.5843Y-3.019
X3.5889Y-2.8394
X3.6236Y-3.0479
X3.6236Y-3.3178
X3.6263Y-2.8265
X3.6306Y-1.7905
X3.6447Y-2.5285
X3.6539Y-3.1901
X3.654Y-2.6395
X3.6572Y-3.1389
X3.6587Y-2.9383
X3.6609Y-3.2415
X3.6616Y-2.9895
X3.6623Y-2.6914
X3.6625Y-2.7419
X3.6657Y-2.8871
X3.681Y-5.9113
X3.6872Y-3.9485
X3.7258Y-3.8022
X3.726Y-3.9115
X3.7432Y-3.741
X3.7613Y-5.9109
X3.7795Y-6.0579
X3.7816Y-3.628
X3.788Y-1.8795
X3.8213Y-6.567
X3.8329Y-5.9014
X3.8413Y-6.0256
X3.8883Y-3.9406
X3.8888Y-3.3803
X3.9503Y-3.9922
X3.9533Y-4.0905
X3.9553Y-4.1319
X3.9555Y-4.1782
X3.9599Y-4.3635
X3.9869Y-3.1898
X3.9893Y-3.1389
X3.9918Y-2.9382
X3.9922Y-2.6908
X3.9926Y-2.9782
X3.9932Y-3.2317
X3.9942Y-2.8812
X3.9945Y-2.733
X3.9959Y-4.2537
X3.997Y-2.6318
X3.9983Y-4.4965
X3.9983Y-4.6429
X4.0003Y-4.3506
X4.0003Y-4.8017
X4.0004Y-4.6911
X4.0376Y-3.3803
X4.0503Y-3.5093
X4.0506Y-3.4713
X4.0511Y-3.7864
X4.0516Y-3.905
X4.0516Y-3.9417
X4.0517Y-3.9782
X4.0521Y-3.7226
X4.0524Y-3.8173
X4.0621Y-4.7857
X4.0621Y-4.9007
X4.0631Y-3.578
X4.0633Y-4.4512
X4.0711Y-4.2514
X4.0892Y-4.1339
X4.0905Y-3.4979
X4.1129Y-3.637
X4.1143Y-3.9227
X4.1444Y-3.3952
X4.1453Y-4.1332
X4.1456Y-4.2474
X4.1486Y-4.446
X4.1489Y-4.5522
X4.1578Y-4.9002
X4.1584Y-4.6205
X4.1584Y-4.7675
X4.1865Y-3.3971
X4.1966Y-4.0948
X4.197Y-2.56
X4.1991Y-2.7556
X4.1995Y-2.9271
X4.2249Y-4.0238
X4.2331Y-4.1389
X4.2342Y-4.2509
X4.2465Y-3.4979
X4.2508Y-4.7868
X4.2523Y-4.8985
X4.2587Y-4.4449
X4.2625Y-2.6702
X4.2636Y-2.8493
X4.2638Y-3.6376
X4.2702Y-3.9227
X4.2782Y-3.2946
X4.2853Y-4.2394
X4.2877Y-3.4072
X4.2921Y-4.1317
X4.3168Y-3.6592
X4.3168Y-3.8707
X4.3178Y-3.3978
X4.3178Y-3.765
X4.3454Y-4.5681
X4.3465Y-4.4478
X4.3468Y-4.8976
X4.3469Y-4.6221
X4.3469Y-4.7698
X4.3497Y-4.3514
X4.3522Y-3.2804
X4.3632Y-3.3978
X4.3726Y-1.7751
X4.388Y-1.8894
X4.4094Y-4.7849
X4.4096Y-4.4505
X4.4098Y-4.9013
X4.413Y-3.4553
X4.413Y-3.612
X4.4185Y-4.3479
X4.4204Y-3.6603
X4.422Y-2.5428
X4.4231Y-3.7644
X4.4231Y-3.8702
X4.4322Y-3.9413
X4.4322Y-4.0865
X4.4474Y-1.866
X4.4593Y-2.9156
X4.463Y-4.2496
X4.4652Y-4.1334
X4.4749Y-3.3964
X4.5078Y-2.546
X4.5106Y-3.281
X4.5228Y-3.397
X4.5233Y-2.5126
X4.5235Y-2.9422
X4.5257Y-3.7655
X4.5257Y-3.8712
X4.5261Y-3.6624
X4.5323Y-1.859
X4.5341Y-4.1348
X4.5429Y-4.2478
X4.5619Y-3.954
X4.5628Y-3.5718
X4.5705Y-3.3977
X4.5736Y-3.7093
X4.5743Y-4.1335
X4.5756Y-3.0539
X4.5799Y-4.2474
X4.5941Y-3.4987
X4.6072Y-3.3969
X4.6133Y-4.1352
X4.6231Y-2.6307
X4.6236Y-2.6701
X4.6249Y-2.9254
X4.625Y-2.871
X4.6257Y-2.7488
X4.6284Y-6.0221
X4.6403Y-3.2846
X4.6448Y-3.4001
X4.696Y-6.5371
X4.7008Y-2.9674
X4.7012Y-3.0034
X4.712Y-3.412
X4.7124Y-3.9537
X4.7197Y-3.5715
X4.7271Y-3.7093
X4.7347Y-2.6702
X4.7351Y-2.6301
X4.7374Y-2.8721
X4.7389Y-2.5037
X4.7398Y-2.7487
X4.74Y-3.0035
X4.7404Y-2.9153
X4.7545Y-3.4107
X4.7753Y-2.4962
X4.7798Y-3.9427
X4.7829Y-2.5666
X4.7864Y-3.9072
X4.7868Y-3.5001
X4.787Y-3.5394
X4.7886Y-3.9909
X4.7891Y-4.0271
X4.7904Y-3.4485
X4.7919Y-3.4076
X4.8024Y-2.6775
X4.8024Y-2.823
X4.8123Y-2.497
X4.8164Y-2.9714
X4.8208Y-4.7873
X4.8208Y-4.8964
X4.8301Y-4.6001
X4.8316Y-4.7524
X4.8374Y-3.3641
X4.8416Y-3.3272
X4.8514Y-4.3962
X4.8632Y-4.1895
X4.8656Y-4.3369
X4.868Y-2.5966
X4.8751Y-2.7474
X4.893Y-3.6653
X4.8942Y-3.7197
X4.9089Y-3.348
X4.9089Y-3.4861
X4.9487Y-2.8126
X4.9493Y-2.6804
X4.9588Y-2.4966
X4.9593Y-3.0
X5.0033Y-2.4971
X5.0087Y-3.0
X5.0102Y-2.7167
X5.0332Y-2.8746
X5.0772Y-5.8575
X5.0911Y-4.767
X5.0915Y-4.7263
X5.1221Y-4.6619
X5.1264Y-2.7636
X5.1268Y-2.7203
X5.1276Y-2.9572
X5.128Y-2.9145
X5.1304Y-2.6504
X5.1308Y-2.611
X5.1345Y-4.7263
X5.1345Y-4.7663
X5.1445Y-1.9406
X5.1546Y-4.6627
X5.1963Y-4.2222
X5.1967Y-4.1815
X5.2397Y-1.8759
X5.2397Y-4.1815
X5.2397Y-4.2215
X5.2521Y-5.921
X5.2636Y-1.9309
X5.3136Y-5.8238
X5.3143Y-2.1007
X5.3143Y-5.9369
X5.7488Y-5.3844
X5.7914Y-5.3079
X5.8046Y-2.3915
X5.8202Y-5.2511
X5.9003Y-2.6107
X5.9144Y-2.4262
X5.9197Y-2.3571
X5.9211Y-5.3101
X6.1761Y-4.8071
X6.2482Y-3.0541
X6.2738Y-3.2867
X6.3107Y-4.6153
X6.3401Y-4.7305
X6.3485Y-3.1245
X6.3578Y-4.0543
X6.3644Y-3.0627
X6.3872Y-3.8627
X6.396Y-4.7
X6.4972Y-3.9275
X6.5364Y-3.8759
T5
X1.8514Y-4.1162
X1.8593Y-4.206
X1.9197Y-3.3133
X1.9214Y-4.1549
X1.9482Y-3.2259
X1.9852Y-4.0999
X1.9905Y-4.1941
X1.9964Y-3.2874
X2.049Y-3.3495
X2.0731Y-3.2614
X2.0854Y-4.9806
X2.1255Y-5.0616
X2.1699Y-4.9921
X2.2052Y-4.923
X2.2443Y-5.0018
X2.3047Y-2.5026
X2.3057Y-3.9387
X2.3215Y-4.0593
X2.3301Y-4.173
X2.3395Y-3.5626
X2.34Y-4.2874
X2.3601Y-2.4313
X2.3723Y-3.4496
X2.3823Y-2.5074
X2.4026Y-3.3418
X2.4072Y-2.5777
X2.4368Y-3.2208
X2.4449Y-4.65
X2.4468Y-3.9258
X2.4589Y-2.5106
X2.4607Y-4.0439
X2.4717Y-4.1576
X2.4775Y-3.5981
X2.4831Y-4.2758
X2.4994Y-4.7558
X2.5091Y-3.4851
X2.538Y-3.3773
X2.55Y-4.8566
X2.5722Y-3.2695
X2.5745Y-4.5871
X2.6026Y-2.8947
X2.6057Y-4.9611
X2.6191Y-5.7009
X2.629Y-4.691
X2.6495Y-4.1491
X2.6731Y-2.7902
X2.6764Y-4.7923
X2.686Y-5.7608
X2.6944Y-5.682
X2.7058Y-5.6049
X2.7122Y-2.9788
X2.7326Y-2.7085
X2.7368Y-4.9007
X2.7745Y-5.6613
X2.7846Y-2.8823
X2.8149Y-2.6089
X2.831Y-5.2558
X2.9207Y-5.1531
X2.9245Y-2.6948
X2.9246Y-5.3428
X2.951Y-1.8846
X2.9557Y-3.9056
X3.0068Y-5.414
X3.0197Y-1.9945
X3.0215Y-5.2396
X3.025Y-1.919
X3.0292Y-1.835
X3.0596Y-3.8017
X3.0644Y-3.688
X3.0663Y-3.5958
X3.0869Y-2.3582
X3.0965Y-5.4935
X3.0974Y-1.9486
X3.1017Y-5.3127
X3.1575Y-2.4807
X3.1883Y-5.3902
X3.1915Y-2.287
X3.2646Y-2.4134
X3.2857Y-2.2344
X3.3595Y-2.3531
X3.3749Y-6.1813
X3.3877Y-2.1658
X3.4166Y-5.6905
X3.4233Y-6.0638
X3.4392Y-6.1364
X3.4594Y-6.2143
X3.4614Y-2.2883
X3.4698Y-5.561
X3.5039Y-6.0902
X3.5288Y-5.7361
X3.5801Y-5.602
X3.6324Y-5.7744
X3.6853Y-5.6399
X3.7309Y-2.034
X3.746Y-5.8154
X3.7643Y-2.1719
X3.7762Y-1.5396
X3.7937Y-5.6835
X3.8041Y-1.6767
X3.8368Y-1.6046
X3.8618Y-2.0077
X3.8704Y-1.5244
X3.8816Y-2.1469
X3.8935Y-1.6599
X3.9682Y-1.9911
X3.9855Y-2.1283
X4.0843Y-1.9673
X4.1125Y-2.1007
X4.4579Y-2.1068
X4.4755Y-1.9673
X4.567Y-2.1296
X4.6016Y-1.9924
X4.677Y-1.6629
X4.6837Y-2.1506
X4.7025Y-1.529
X4.7063Y-2.012
X4.7272Y-3.8991
X4.7296Y-5.6875
X4.7347Y-1.6061
X4.765Y-1.6827
X4.7783Y-5.8214
X4.7928Y-1.5484
X4.7982Y-2.1763
X4.8277Y-2.0385
X4.8368Y-5.649
X4.8669Y-5.1397
X4.8682Y-5.2046
X4.8848Y-5.7803
X4.9015Y-4.5625
X4.9051Y-4.7638
X4.9052Y-4.8162
X4.9457Y-5.611
X4.9476Y-5.139
X4.9483Y-5.2046
X4.9634Y-4.8162
X4.964Y-4.764
X4.9771Y-3.8273
X4.978Y-4.5613
X4.9966Y-4.2281
X4.9966Y-4.2804
X4.9969Y-5.7431
X5.0106Y-6.0945
X5.019Y-4.0336
X5.0204Y-5.1383
X5.0204Y-5.204
X5.0272Y-3.9061
X5.0467Y-4.2792
X5.0469Y-4.2282
X5.0535Y-5.5708
X5.0577Y-6.2239
X5.0775Y-6.1443
X5.079Y-3.7897
X5.0886Y-4.6202
X5.0898Y-4.0324
X5.0979Y-4.2281
X5.098Y-4.2804
X5.0989Y-5.7029
X5.0995Y-6.061
X5.1062Y-2.2999
X5.1462Y-6.1909
X5.1503Y-4.6186
X5.1691Y-4.1024
X5.1729Y-4.0328
X5.177Y-2.1737
X5.2004Y-2.3606
X5.2098Y-4.9587
X5.2112Y-4.6207
X5.2112Y-4.6838
X5.2112Y-4.7469
X5.2112Y-4.81
X5.2228Y-5.5086
X5.2531Y-4.0319
X5.2614Y-4.1112
X5.2774Y-2.2409
X5.2984Y-2.4182
X5.3142Y-5.4282
X5.3217Y-5.6158
X5.3371Y-4.0324
X5.3383Y-4.0814
X5.3383Y-4.1313
X5.3732Y-2.303
X5.3965Y-2.4845
X5.3974Y-5.362
X5.4109Y-5.5355
X5.4666Y-1.964
X5.472Y-2.3668
X5.4894Y-5.2768
X5.4947Y-5.467
X5.5403Y-1.8484
X5.5429Y-1.9313
X5.544Y-2.0135
X5.5746Y-5.3841
X5.617Y-1.8972
X5.7029Y-2.8138
X5.7487Y-5.6789
X5.7737Y-2.9057
X5.7969Y-5.0222
X5.7969Y-5.0704
X5.7991Y-4.9124
X5.8181Y-2.7302
X5.8185Y-5.6179
X5.8284Y-5.6998
X5.8353Y-5.7809
X5.8355Y-2.9902
X5.8554Y-4.8157
X5.8583Y-5.0222
X5.8583Y-5.0705
X5.8851Y-2.8189
X5.9064Y-4.7123
X5.9087Y-5.7185
X5.9114Y-3.0914
X5.9194Y-5.0714
X5.9195Y-5.0222
X5.9261Y-4.9801
X5.9549Y-2.9136
X5.9634Y-4.6054
X5.9809Y-4.8728
X5.9812Y-3.2885
X6.0115Y-3.3945
X6.0269Y-3.0045
X6.0349Y-4.7796
X6.0406Y-3.51
X6.0569Y-4.2951
X6.0712Y-4.1753
X6.0719Y-3.6159
X6.0834Y-4.0633
X6.0867Y-4.6716
X6.0964Y-3.9511
X6.0992Y-2.5303
X6.1186Y-3.2545
X6.1467Y-3.3583
X6.1494Y-2.6052
X6.1763Y-3.4732
X6.1775Y-2.5282
X6.1986Y-4.3067
X6.2053Y-2.449
X6.2082Y-3.5808
X6.2115Y-4.1931
X6.2223Y-4.0781
X6.2362Y-3.9622
X6.2552Y-2.523
X6.2811Y-5.0251
X6.327Y-4.9382
X6.364Y-5.0141
X6.4062Y-5.0884
X6.4496Y-5.004
X6.4775Y-3.2852
X6.4999Y-3.3772
X6.5436Y-4.2208
X6.5526Y-3.312
X6.5593Y-4.1265
X6.611Y-3.2472
X6.6206Y-4.179
X6.6349Y-3.3425
X6.6844Y-4.2355
X6.694Y-4.1412
T6
X3.8863Y-4.1007
T7
X4.6331Y-6.7172
X4.6831Y-6.7172
X4.7331Y-6.7172
X3.7692Y-6.7454
X3.8192Y-6.7454
X3.8692Y-6.7454
T8
X3.4126Y-3.6135
X3.4126Y-3.7135
X3.4126Y-3.8135
X3.4126Y-3.9135
X3.4126Y-4.0135
X3.5126Y-3.6135
X3.5126Y-3.7135
X3.5126Y-3.8135
X3.5126Y-3.9135
X3.5126Y-4.0135
X5.4396Y-2.9563
X5.4396Y-3.0563
X5.4396Y-3.1563
X5.4396Y-3.2563
X5.4396Y-3.3563
X5.4396Y-3.4563
X5.4396Y-3.5563
X5.4396Y-3.6563
X5.4396Y-3.7563
X5.4396Y-3.8563
X5.4396Y-3.9563
X5.4396Y-4.0563
X5.4396Y-4.1563
X5.4396Y-4.2563
X5.4396Y-4.3563
X5.4396Y-4.4563
X5.4396Y-4.5563
X5.4396Y-4.6563
X5.4396Y-4.7563
X5.4396Y-4.8563
X5.5396Y-2.9563
X5.5396Y-3.0563
X5.5396Y-3.1563
X5.5396Y-3.2563
X5.5396Y-3.3563
X5.5396Y-3.4563
X5.5396Y-3.5563
X5.5396Y-3.6563
X5.5396Y-3.7563
X5.5396Y-3.8563
X5.5396Y-3.9563
X5.5396Y-4.0563
X5.5396Y-4.1563
X5.5396Y-4.2563
X5.5396Y-4.3563
X5.5396Y-4.4563
X5.5396Y-4.5563
X5.5396Y-4.6563
X5.5396Y-4.7563
X5.5396Y-4.8563
T9
X3.0492Y-4.0259
X3.0859Y-5.1095
X3.1025Y-4.0754
X3.157Y-4.1236
X3.1853Y-5.1985
X3.2653Y-3.6139
X3.2653Y-3.6922
X3.2653Y-3.7704
X3.2653Y-3.8487
X3.2653Y-3.9269
X3.2653Y-4.0052
X3.2815Y-4.3286
X3.3298Y-4.3711
X3.3875Y-4.425
X3.5435Y-4.725
X3.6546Y-4.8361
T10
X3.522Y-5.1078
X3.522Y-5.2078
T11
X3.3324Y-4.8723
X3.3324Y-5.4723
X4.1173Y-2.4982
X4.1173Y-3.1164
X4.3102Y-2.5219
X4.3102Y-3.0927
T12
X4.2719Y-5.5101
X4.2719Y-5.9038
X4.2719Y-6.2975
X4.2719Y-6.6912
T0
M30
